<svg width="32" height="32" viewBox="0 0 32 32" fill="none" xmlns="http://www.w3.org/2000/svg">
<rect width="32" height="32" rx="4" fill="#FF0000"/>
<path d="M13.1051 5.68933C12.8156 5.68031 12.5152 5.70083 12.217 5.75708C11.1783 5.95396 10.7696 6.37265 10.4171 6.67078C10.3974 6.43359 10.4611 6.19568 10.538 5.9585C9.62109 6.611 9.06133 7.48986 8.82227 8.59705C8.70039 8.31111 8.66417 8.02542 8.65198 7.7273C8.21792 8.30761 8.11308 8.9754 8.13745 9.66821C8.16558 10.5101 8.39636 11.2789 9.02917 11.8911C8.84636 11.1421 8.95995 10.4293 9.29651 9.71216C9.58807 10.675 10.1657 11.3708 11.0488 11.8142C11.0535 11.7898 11.0562 11.7825 11.0562 11.7703C11.0562 11.7496 11.0562 11.7259 11.0525 11.7062C10.9672 11.1427 11.0154 10.5829 11.1532 10.0308C11.1691 9.98201 11.1616 9.92579 11.1532 9.87329C11.0238 9.22079 11.1341 8.62075 11.5963 8.11731C12.1757 7.48919 13.1783 7.47757 13.7661 8.09351C14.0502 8.38788 14.1798 8.75351 14.2257 9.14819C14.2979 9.78476 14.1558 10.3751 13.8192 10.9188C13.7827 10.9751 13.7779 11.0166 13.8229 11.0653C14.2532 11.5566 13.6055 10.9288 15.3408 12.5723C15.4177 12.6454 15.4936 12.7206 15.5752 12.7975C15.9277 12.3662 16.2029 11.8836 16.4138 11.3839C16.7785 10.5214 16.9654 9.63874 16.7507 8.70874C16.3982 7.17874 15.4845 6.17236 13.9236 5.79736C13.6723 5.7369 13.3946 5.69836 13.1051 5.68933ZM11.7428 9.50525C11.6734 9.58587 11.6126 9.67602 11.5798 9.77258C11.5105 9.99008 11.4389 10.2069 11.3986 10.4281C11.3048 10.9315 11.292 11.4389 11.426 11.9424C11.4504 12.023 11.4902 12.0749 11.5634 12.1237C11.9534 12.3815 12.2782 12.7042 12.4807 13.1307C12.5126 13.2076 12.5376 13.2881 12.5704 13.3724C12.4373 13.2196 12.3182 13.0661 12.1804 12.933C11.7342 12.5064 11.0859 12.2487 10.2871 11.7172C9.88586 11.4481 9.54416 11.1177 9.32947 10.6387C9.18697 11.203 9.24865 11.7056 9.53271 12.1969C9.00584 12.0563 8.48282 12.0289 7.92688 12.0486C8.28782 12.2783 8.60758 12.5352 8.82227 12.9055C8.97602 13.1755 8.94423 13.3252 8.70142 13.5061C8.00767 13.9814 7.18841 14.2593 6.5481 14.8556C6.59591 14.8678 6.62872 14.8593 6.66528 14.8556C6.97747 14.8068 7.28948 14.7659 7.61011 14.8025C8.04792 14.8503 8.34751 15.0811 8.40845 15.4598C8.43751 15.637 8.42916 15.8264 8.40479 16.0073C8.38041 16.2005 8.31612 16.3892 8.27112 16.5823C9.01737 15.942 9.83601 15.4307 10.8016 15.1486C10.4885 15.0923 10.1811 15.0364 9.86047 14.9801C10.7567 13.9929 12.4968 14.0094 12.7078 14.1378C12.0468 14.1941 11.4143 14.3506 10.8218 14.7256C11.4583 14.8709 11.2028 14.8067 11.8197 14.9801C11.1953 15.2979 10.7489 15.7417 10.4977 16.3699C10.8258 16.1805 11.1793 16.1164 11.5487 16.1483C12.4159 16.2243 12.9138 16.9048 12.5613 17.7542C12.4722 17.9679 12.3378 18.1465 12.1475 18.2833L12.1603 18.3199C12.4162 18.2881 12.675 18.2548 12.9385 18.2229C12.8082 18.5295 12.578 18.755 12.2939 18.9443C12.9389 19.0053 14.0347 18.3796 14.136 17.9043C13.8847 17.924 13.511 18.022 13.4988 17.6113C13.495 17.5148 13.4867 17.5944 13.6123 16.8734C13.5711 16.9053 13.5274 16.9467 13.4786 16.9833C13.1871 17.1848 13.0246 16.8585 13.1014 16.5969C13.1746 16.3475 13.2543 16.0968 13.3358 15.8352C13.0433 15.7424 12.7165 15.7175 12.3837 15.7015C12.5862 15.5928 13.7177 15.331 14.7274 15.5166C15.1287 15.5888 14.8958 16.0547 14.7054 16.4175C15.1151 16.4494 15.36 16.4492 15.6356 16.5017C16.5075 16.6751 16.3199 17.4377 16.304 17.6187C17.038 17.2802 17.5787 16.0667 17.4081 15.2529C17.2506 15.5145 17.0556 15.732 16.7434 15.837C16.7556 15.5389 16.601 15.3671 16.3497 15.2621C16.3254 15.2499 16.3002 15.2059 16.304 15.1815C16.3686 14.754 16.2682 14.3645 16.0732 13.9895C15.8182 13.4898 15.441 13.0938 15.035 12.7151C13.8622 11.6192 13.2305 11.0889 13.0355 10.1589C13.0027 10.0099 12.9994 9.86077 12.9788 9.69202C12.9469 9.74452 12.9225 9.78354 12.9019 9.82385C12.7275 10.2101 12.6792 10.6224 12.7279 11.0415C12.7485 11.2103 12.8008 11.3582 12.9348 11.4791C13.3323 11.8419 13.7286 12.2083 14.1177 12.5833C14.5236 12.9742 14.8966 13.4206 15.0991 13.9437C15.0344 13.8875 14.9921 13.8198 14.9471 13.7551C14.6556 13.3483 14.2773 13.017 13.9126 12.6748C13.4467 12.2398 12.9753 11.813 12.5375 11.3583C11.7425 10.5333 11.7672 9.78275 11.7428 9.50525ZM22.8536 12.8011C22.8293 12.8011 22.8049 12.8102 22.7767 12.814C21.9939 12.9471 21.5315 13.4379 20.7937 14.006C20.3718 14.3322 20.2353 14.1583 20.3085 13.9858C20.3657 13.8452 20.4423 13.7161 20.5154 13.583C20.5557 13.5108 20.6076 13.4464 20.6564 13.3779C20.6479 13.3695 20.6364 13.3653 20.6289 13.3578C19.5339 14.0947 18.7351 15.0654 18.2888 16.3094C18.301 16.3216 18.3169 16.3339 18.3291 16.3461C18.3413 16.3217 18.3498 16.298 18.3657 16.2783C18.7876 15.7908 19.2892 15.4005 19.8489 15.079C20.5867 14.6524 21.3696 14.341 22.2292 14.2642C22.4036 14.2482 22.583 14.2605 22.7621 14.2605C22.689 14.2886 22.6191 14.2969 22.546 14.3044C21.796 14.401 21.1074 14.6672 20.4586 15.0497C19.2342 15.7706 18.2471 16.7507 17.4117 17.886C17.3996 17.9019 17.3965 17.9213 17.3843 17.9373C17.9721 18.151 18.356 18.6353 18.8473 18.97C18.8557 18.9662 18.86 18.961 18.8638 18.9535L18.9132 18.8436C19.4082 17.7599 20.0078 16.7369 20.8065 15.8425C21.4834 15.085 22.3469 14.8249 23.3407 15.0387C23.5798 15.0912 23.803 15.215 24.0383 15.3115C24.1311 15.2553 24.2471 15.1839 24.3643 15.1229C24.7046 14.9495 25.0695 14.841 25.4464 14.7604C26.0427 14.6357 26.6434 14.562 27.2518 14.7073V14.6871C27.2303 14.6693 27.201 14.6529 27.1804 14.6285C26.7098 14.1617 26.1676 13.8077 25.5544 13.5574C25.0351 13.3483 24.4992 13.2399 23.9358 13.2717C23.5299 13.2961 23.1409 13.3968 22.7603 13.5299C22.659 13.5665 22.554 13.5953 22.449 13.6196C22.2502 13.6684 22.1526 13.494 22.2585 13.345C22.3879 13.1593 22.3958 13.1766 22.8665 12.8616C22.8908 12.8456 22.9159 12.8293 22.9562 12.8011H22.8536ZM14.0298 13.9858C14.5042 14.179 14.8082 14.5089 14.9948 14.9636C14.5401 15.0124 14.1638 14.6299 14.0298 13.9858ZM7.9635 15.2767C6.98194 16.2695 6.15812 17.3597 5.6875 18.6807C5.9875 18.4435 6.29264 18.2219 6.64514 18.0288C6.30858 18.9269 5.84931 20.1558 6.32837 22.1011C6.51493 22.8661 6.81115 23.5824 7.30615 24.2068C7.42334 24.3558 7.56313 24.4837 7.6925 24.6206C7.70094 24.6122 7.70787 24.6098 7.71631 24.6023C7.65912 24.3201 7.62776 24.0338 7.65588 23.7197C7.74495 23.8482 7.8133 23.9617 7.89392 24.0658C8.40486 24.7099 9.05827 25.1695 9.8092 25.4995C10.8226 25.9542 11.8803 26.035 12.9678 25.8456C15.1943 25.4546 16.6452 23.8871 17.6718 21.8649C17.7111 21.7946 17.6961 21.7507 17.6351 21.6982C16.0376 20.3689 16.7101 20.9123 15.903 20.2645C15.8701 20.3011 15.9029 20.256 15.826 20.3854C15.3723 21.1551 14.7926 21.8075 14.0426 22.3025C13.6245 22.5762 13.1711 22.7786 12.6602 22.7786C11.7845 22.7786 11.1117 22.3948 10.657 21.658C10.1704 20.8723 10.1175 20.0197 10.3237 19.1384C10.6397 17.7772 11.5443 16.9159 11.8893 16.5493C11.1308 16.2999 10.5507 16.6165 10.007 17.1078C10.0398 16.5481 10.1811 16.0526 10.4849 15.6063C9.49955 16.0329 8.62324 16.6139 7.8573 17.3751C7.84511 17.1417 8.07685 15.6155 8.08435 15.5752C8.09654 15.4664 8.061 15.3611 7.9635 15.2767ZM13.8851 15.9634C13.6826 16.4068 13.8208 16.8654 14.1818 17.1682C14.3646 17.321 14.5593 17.4621 14.7421 17.6187C14.9286 17.7715 15.0419 17.97 15.0625 18.2156C15.0784 18.405 15.0954 18.5976 15.1357 18.7832C15.2248 19.2098 15.4961 19.5239 15.8242 19.7939C16.4936 20.3461 17.1617 20.8933 17.8311 21.4492C18.5567 22.053 18.395 22.7704 18.3584 23.7051C18.3218 24.6276 18.8536 25.434 19.717 25.7687C19.7574 25.7846 19.7988 25.7929 19.8635 25.8126C19.227 25.0795 19.4532 24.0351 19.891 23.7051C19.9032 23.7941 19.907 23.8789 19.9276 23.9633C20.3092 25.7398 21.7696 26.5483 23.3755 26.2539C24.0242 26.1367 24.6162 25.8971 25.115 25.4574C25.1966 25.3852 25.2658 25.2921 25.3549 25.1956C24.572 25.3812 23.9016 25.1992 23.2894 24.7689C23.3176 24.7567 23.342 24.7561 23.3663 24.7561C24.2298 24.8283 25.0133 24.6192 25.679 24.0548C26.4702 23.3864 26.757 22.3279 26.3839 21.3979C26.0492 20.587 25.429 20.0959 24.6096 19.8306C24.2243 19.7059 23.7103 19.6618 23.4469 19.7134C23.8481 19.8746 24.0183 19.9793 24.2086 20.1968C24.7196 20.7771 24.6301 21.5946 23.9889 22.0333C23.5145 22.3596 22.9805 22.4558 22.4124 22.3995C22.3636 22.3958 22.3187 22.3842 22.2897 22.3757C22.4031 22.2267 22.5331 22.0928 22.6174 21.9399C22.999 21.2631 22.8377 20.2439 22.2659 19.6804C22.1806 19.596 22.0796 19.5239 21.9821 19.4442C21.9699 19.4967 21.9782 19.5278 21.9857 19.5559C22.1563 20.2243 21.6565 20.8602 20.9786 20.8358C20.6702 20.8236 20.4155 20.6846 20.184 20.4952C19.3927 19.8465 18.5984 19.2013 17.8109 18.5488C17.5719 18.351 17.3036 18.2235 16.9961 18.1991C16.8095 18.1832 16.6205 18.1747 16.434 18.1625C16.1949 18.1465 16.0757 18.0497 16.011 17.8237C15.9744 17.6869 15.9512 17.5504 15.9231 17.4136C15.8622 17.0873 15.6717 16.8892 15.3427 16.8405C15.1645 16.8123 14.9806 16.7997 14.8025 16.78C14.2756 16.7238 13.9995 16.4828 13.8851 15.9634Z" fill="white"/>
</svg>
